PathFileType	4	(X/Y/Z)	C:\Users\xlb\Desktop\20210112\20210112\bx_n_10_502.trc
DataRate	CameraRate	NumFrames	NumMarkers	Units	OrigDataRate	OrigDataStartFrame	OrigNumFrames
50.00	50.00	       4	43	mm	50.00	1	       473
Frame#	Time	Top.Head			R.Acromium			L.Acromium			Sternum			R.ASIS			L.ASIS			V.Sacral			R.Thigh.Upper			R.Thigh.Front			R.Thigh.Rear			R.Knee.Lat			R.Knee.Med			R.Shank.Upper			R.Shank.Front			R.Shank.Rear			R.Ankle.Lat			R.Midfoot.Lat			R.Toe.Lat			R.Toe.Tip			R.Toe.Med			R.Ankle.Med			R.Midfoot.Sup			R.Heel			L.Thigh.Upper			L.Thigh.Front			L.Thigh.Rear			L.Knee.Lat			L.Knee.Med			L.Shank.Upper			L.Shank.Front			L.Shank.Rear			L.Ankle.Lat			L.Midfoot.Lat			L.Toe.Lat			L.Toe.Tip			L.Toe.Med			L.Ankle.Med			L.Midfoot.Sup			L.Heel			origin1 front left			origin2 front right			origin 3 back right			origin 4 back leftt			
		X1	Y1	Z1	X2	Y2	Z2	X3	Y3	Z3	X4	Y4	Z4	X5	Y5	Z5	X6	Y6	Z6	X7	Y7	Z7	X8	Y8	Z8	X9	Y9	Z9	X10	Y10	Z10	X11	Y11	Z11	X12	Y12	Z12	X13	Y13	Z13	X14	Y14	Z14	X15	Y15	Z15	X16	Y16	Z16	X17	Y17	Z17	X18	Y18	Z18	X19	Y19	Z19	X20	Y20	Z20	X21	Y21	Z21	X22	Y22	Z22	X23	Y23	Z23	X24	Y24	Z24	X25	Y25	Z25	X26	Y26	Z26	X27	Y27	Z27	X28	Y28	Z28	X29	Y29	Z29	X30	Y30	Z30	X31	Y31	Z31	X32	Y32	Z32	X33	Y33	Z33	X34	Y34	Z34	X35	Y35	Z35	X36	Y36	Z36	X37	Y37	Z37	X38	Y38	Z38	X39	Y39	Z39	X40	Y40	Z40	X41	Y41	Z41	X42	Y42	Z42	X43	Y43	Z43	

1	0.000	-661.76288	134.51772	1844.73779	-678.95715	-61.88956	1533.52283	-710.60236	299.68048	1522.53455	-591.37317	118.11808	1353.07300	-566.87152	5.10869	1054.68103	-582.72235	254.71936	1064.30078	-773.58331	100.91199	1047.90515	-632.10907	-64.55471	872.28210	-560.19373	3.41850	802.75494	-657.64386	-54.82034	758.74481	-687.34039	-29.25050	616.59375	-674.40662	79.31925	573.14276	-698.20728	-27.14077	569.91302	-649.57538	21.81155	517.75000	-746.21539	-38.97829	492.11911	-757.35583	-17.95050	208.68909	-649.38635	-68.66634	160.79880	-607.56390	-76.15183	157.11668	-548.85504	-30.29644	164.34801	-596.83154	24.95409	167.31706	-714.84436	70.94028	216.14037	-671.52081	52.96133	158.95282	-791.01312	40.68169	175.06305	-665.37317	294.59515	870.98535	-563.96204	221.92348	812.73883	-676.00568	277.05173	742.57477	-709.43005	255.59422	641.81445	-674.46887	148.25964	577.69623	-713.42725	251.04152	576.21851	-661.90717	209.11021	532.81793	-756.61255	259.80371	502.87216	-766.82941	226.28909	205.76903	-660.84113	298.31091	157.87103	-624.46136	306.89774	158.47542	-555.24054	257.58749	164.55237	-590.53070	219.62274	173.51961	-710.20135	152.73537	216.48837	-674.06934	171.35809	157.09894	-794.58362	176.62924	184.36053	-527.99078	304.21622	146.57008	-517.29425	-72.83565	143.26549	-875.97607	-78.80654	141.45569	-882.56708	296.11902	144.63147	
2	0.020	-661.91071	134.37817	1844.76440	-679.09137	-61.99395	1533.49243	-710.67780	299.68039	1522.59497	-591.53320	118.15906	1352.95374	-566.91699	5.17018	1054.67273	-582.70538	254.68614	1064.36475	-773.60834	100.88522	1047.88892	-632.16107	-64.59456	872.27240	-560.00763	3.07414	802.77368	-657.64703	-54.97504	758.81488	-687.52966	-29.07092	616.60828	-674.55994	79.36794	573.16974	-698.18542	-27.12247	569.83191	-649.54211	21.78525	517.75757	-746.14899	-38.95662	492.06473	-757.34393	-17.90260	208.66957	-649.41675	-68.72614	160.89201	-607.51984	-76.20449	157.12219	-548.82294	-30.39327	164.28738	-596.79755	24.97839	167.38026	-714.84473	70.88003	216.00836	-671.60449	52.99468	158.85835	-790.93542	40.54970	175.14349	-665.37201	294.54706	870.90082	-564.03174	221.76340	812.85687	-676.16125	276.91571	742.46094	-709.43073	255.61461	641.87305	-674.47815	148.29619	577.66449	-713.40417	251.01448	576.19659	-661.89178	209.04564	532.88501	-756.63452	259.88489	502.95596	-766.88641	226.31392	205.83531	-660.76923	298.27664	157.89680	-624.43713	306.92245	158.48662	-555.32013	257.52585	164.46390	-590.49615	219.51964	173.45229	-710.30127	152.71596	216.46597	-674.06934	171.35803	157.09900	-794.52356	176.60132	184.23335	-528.02332	304.29321	146.53951	-517.31525	-72.85754	143.24063	-875.98364	-78.83905	141.40289	-882.55621	296.14136	144.67256	
3	0.040	-662.04340	134.28345	1844.78271	-679.22748	-62.06859	1533.44897	-710.74408	299.67819	1522.63574	-591.64807	118.18892	1352.87183	-566.96143	5.19910	1054.67688	-582.71320	254.65971	1064.41797	-773.64630	100.86086	1047.88794	-632.21991	-64.59754	872.24292	-559.90973	2.86262	802.79492	-657.66907	-55.09511	758.85114	-687.69507	-28.89311	616.59570	-674.64801	79.36427	573.17444	-698.17645	-27.10778	569.77747	-649.52814	21.76609	517.77277	-746.11041	-38.94016	492.03644	-757.33881	-17.87160	208.65334	-649.42236	-68.73574	160.93100	-607.49829	-76.23496	157.14046	-548.80450	-30.45660	164.24159	-596.78619	24.98300	167.39938	-714.86072	70.86037	215.93570	-671.66492	53.02695	158.80023	-790.88959	40.47158	175.19141	-665.40991	294.52451	870.84509	-564.11047	221.64201	812.94794	-676.30219	276.80386	742.34546	-709.44580	255.63190	641.90875	-674.50916	148.28069	577.65833	-713.40387	251.02444	576.16736	-661.90204	209.05197	532.91522	-756.67651	259.92984	503.01184	-766.93127	226.32666	205.89200	-660.74005	298.25629	157.90802	-624.42389	306.93985	158.50795	-555.35217	257.47498	164.38887	-590.48248	219.43761	173.41145	-710.36920	152.68037	216.42563	-674.06927	171.35793	157.09914	-794.49097	176.56311	184.11105	-528.06213	304.34619	146.49477	-517.33606	-72.86150	143.21190	-875.98785	-78.85391	141.37888	-882.55859	296.16174	144.69551	
4	0.060	-662.14661	134.24261	1844.77905	-679.34973	-62.10771	1533.39026	-710.80518	299.67316	1522.65552	-591.72461	118.19516	1352.82300	-567.00342	5.18929	1054.69275	-582.75922	254.64552	1064.44580	-773.69830	100.83756	1047.89197	-632.28064	-64.56375	872.19592	-559.90656	2.79225	802.81073	-657.70392	-55.16543	758.86121	-687.79193	-28.77538	616.56580	-674.67285	79.31479	573.14941	-698.18164	-27.09207	569.74805	-649.53101	21.76820	517.77759	-746.10724	-38.92485	492.03909	-757.34442	-17.86000	208.63797	-649.41968	-68.70355	160.92343	-607.49542	-76.23790	157.16995	-548.80096	-30.48112	164.21736	-596.78601	24.97662	167.39088	-714.88904	70.85426	215.90068	-671.69342	53.06446	158.77869	-790.88245	40.46058	175.20151	-665.49261	294.52628	870.80865	-564.17969	221.59535	812.99390	-676.41919	276.71756	742.23193	-709.46594	255.63957	641.91577	-674.56183	148.23354	577.65759	-713.43988	251.06078	576.12695	-661.94818	209.12509	532.88776	-756.74304	259.93521	503.03769	-766.95349	226.33081	205.91815	-660.75110	298.26285	157.90578	-624.41705	306.94022	158.52333	-555.33337	257.43787	164.34087	-590.49225	219.38132	173.40410	-710.41595	152.62788	216.37082	-674.06921	171.35779	157.09927	-794.48822	176.52809	184.01360	-528.09106	304.37759	146.45625	-517.35358	-72.85577	143.19318	-875.98065	-78.84425	141.36568	-882.56903	296.17380	144.69240	
